<svg width="24" height="24" viewBox="0 0 24 24" fill="none" xmlns="http://www.w3.org/2000/svg">
<path d="M21.775 14.1181C21.925 13.4341 22 12.7281 22 12.0001C22.0009 10.9099 21.8236 9.82697 21.475 8.79407L20.948 8.75607H20.937L20.886 8.75307C20.5201 8.74734 20.1542 8.76169 19.79 8.79607C18.7517 8.9 17.7291 9.12486 16.743 9.46607C16.48 9.55607 16.18 9.71807 15.785 9.95107L15.537 10.0991C15.215 10.2911 14.847 10.5121 14.449 10.7191C13.419 11.2581 12.126 11.7501 10.437 11.7501C8.01897 11.7501 6.02997 10.9461 4.65697 10.1541C4.09585 9.83107 3.56088 9.46461 3.05697 9.05807C2.89215 8.92542 2.73205 8.787 2.57697 8.64307C2.05291 10.1259 1.88238 11.7107 2.07897 13.2711L2.46397 13.2511H2.47497L2.50197 13.2501C2.6519 13.2443 2.80195 13.2423 2.95197 13.2441C3.25497 13.2461 3.68497 13.2581 4.20497 13.2981C5.24197 13.3801 6.65197 13.5761 8.12797 14.0401C8.57797 14.1821 9.02697 14.4141 9.45497 14.6461L9.75397 14.8091C10.1 14.9991 10.451 15.1921 10.841 15.3791C11.821 15.8491 12.985 16.2501 14.509 16.2501C15.892 16.2501 17.171 15.9061 18.311 15.4841C18.882 15.2741 19.41 15.0461 19.902 14.8341L19.92 14.8271C20.395 14.6231 20.857 14.4241 21.263 14.2891L21.775 14.1181Z" fill="black"/>
<path d="M21.206 15.912C20.9927 15.9993 20.7557 16.0993 20.495 16.212L20.485 16.217C19.998 16.427 19.44 16.667 18.831 16.891C17.605 17.345 16.138 17.751 14.509 17.751C12.696 17.751 11.306 17.265 10.192 16.731C9.79305 16.5363 9.39956 16.3305 9.01201 16.114L8.74001 15.964C8.31001 15.732 7.97601 15.565 7.67801 15.471C6.51029 15.1123 5.30615 14.8853 4.08801 14.794C3.60465 14.756 3.11982 14.74 2.63501 14.746L2.55801 14.749H2.53801L2.38501 14.757C3.58201 18.94 7.43301 22 12 22C16.135 22 19.683 19.49 21.206 15.912ZM3.23701 7.179L3.53401 7.481L3.53701 7.485L3.55601 7.503L3.64201 7.584C3.72101 7.656 3.84201 7.764 4.00201 7.894C4.32201 8.154 4.79701 8.504 5.40601 8.854C6.62501 9.558 8.35601 10.25 10.437 10.25C11.811 10.25 12.862 9.856 13.754 9.39C14.109 9.204 14.429 9.013 14.747 8.823L15.022 8.66C15.414 8.428 15.832 8.192 16.257 8.046C17.3545 7.66801 18.4921 7.41867 19.647 7.303C20.0312 7.2654 20.417 7.24804 20.803 7.251C19.946 5.6629 18.6753 4.3363 17.1255 3.41184C15.5757 2.48739 13.8046 1.99953 12 2C10.2095 1.99967 8.4517 2.4801 6.91025 3.39111C5.3688 4.30211 4.10023 5.61029 3.23701 7.179Z" fill="black"/>
</svg>
