<svg width="24" height="24" viewBox="0 0 24 24" fill="none" xmlns="http://www.w3.org/2000/svg">
<path fill-rule="evenodd" clip-rule="evenodd" d="M7.78302 4.01597C9.22702 4.27797 10.711 5.01597 12 6.14797C13.29 5.01597 14.773 4.27797 16.217 4.01597C17.844 3.71997 19.523 4.01997 20.699 5.19597C21.852 6.34997 22.164 7.98697 21.896 9.58297C21.656 11.014 20.948 12.489 19.849 13.778C20.1018 14.7804 20.0376 15.8365 19.6654 16.801C19.2931 17.7654 18.6311 18.5908 17.7704 19.1634C16.9097 19.7361 15.8926 20.0278 14.8592 19.9985C13.8258 19.9693 12.8269 19.6204 12 19C11.1731 19.6208 10.1741 19.97 9.1405 19.9994C8.1069 20.0289 7.0896 19.7372 6.22868 19.1645C5.36775 18.5918 4.70556 17.7663 4.33329 16.8016C3.96103 15.8369 3.897 14.7805 4.15002 13.778C3.05402 12.489 2.34402 11.014 2.10502 9.58297C1.83702 7.98697 2.14902 6.34997 3.30202 5.19597C4.47702 4.01997 6.15602 3.71997 7.78302 4.01597ZM4.71502 6.60997C5.29602 6.02897 6.23702 5.76697 7.42502 5.98297C8.44502 6.16797 9.56902 6.69897 10.592 7.57297L10.532 7.62797C10.169 7.97397 9.88702 8.42797 9.67202 8.91097C9.24002 9.88197 9.00002 11.15 9.00002 12.5C9.00002 13.849 9.24102 15.118 9.67202 16.088C9.88702 16.571 10.169 17.025 10.532 17.371C10.576 17.413 10.622 17.4536 10.67 17.493C10.1387 17.8495 9.5073 18.0269 8.86804 17.9991C8.22878 17.9713 7.61514 17.7398 7.11677 17.3385C6.61839 16.9372 6.26139 16.3871 6.09789 15.7684C5.9344 15.1498 5.97299 14.4951 6.20802 13.9C6.27806 13.7222 6.2957 13.528 6.25883 13.3405C6.22197 13.153 6.13216 12.98 6.00002 12.842C4.91102 11.706 4.27002 10.407 4.07602 9.25297C3.88202 8.09597 4.14602 7.18097 4.71602 6.61097M13.331 17.493C13.8623 17.8493 14.4935 18.0265 15.1326 17.9987C15.7717 17.9709 16.3851 17.7396 16.8834 17.3384C17.3817 16.9373 17.7387 16.3874 17.9024 15.769C18.066 15.1506 18.0277 14.4961 17.793 13.901C17.7222 13.7229 17.7041 13.5282 17.7408 13.3401C17.7775 13.152 17.8675 12.9784 18 12.84C19.089 11.705 19.73 10.406 19.924 9.25197C20.118 8.09497 19.855 7.17997 19.284 6.60997C18.704 6.02897 17.763 5.76697 16.574 5.98297C15.556 6.16797 14.431 6.69897 13.408 7.57297L13.468 7.62797C13.831 7.97397 14.113 8.42797 14.328 8.91097C14.758 9.88097 15 11.15 15 12.499C15 13.848 14.759 15.117 14.328 16.087C14.113 16.57 13.831 17.024 13.468 17.37C13.424 17.412 13.378 17.4526 13.33 17.492M11 12.5C11 11.364 11.207 10.383 11.5 9.72397C11.647 9.39397 11.796 9.18697 11.91 9.07797C11.99 9.00197 12.01 9.00197 12.089 9.07797C12.204 9.18797 12.353 9.39297 12.5 9.72397C12.793 10.384 13 11.364 13 12.5C13 13.636 12.793 14.617 12.5 15.276C12.353 15.606 12.204 15.812 12.089 15.922C12.009 15.997 11.99 15.997 11.911 15.922C11.796 15.812 11.647 15.606 11.499 15.276C11.207 14.616 10.999 13.636 10.999 12.5" fill="black"/>
</svg>
