<svg width="98" height="98" viewBox="0 0 98 98" fill="none" xmlns="http://www.w3.org/2000/svg">
<path d="M49.8191 8.17139C51.2393 8.1991 52.6522 8.2976 54.0525 8.46729C74.2205 10.956 89.8328 28.1493 89.8328 48.9907C89.8326 71.5428 71.5519 89.8237 48.9998 89.8237C42.6916 89.8318 36.468 88.3726 30.821 85.561C29.3762 84.8126 27.7073 84.6196 26.1296 85.0181L17.0398 87.4517C16.1401 87.6917 15.193 87.6903 14.2937 87.4487C13.3945 87.2071 12.5749 86.7332 11.9167 86.0747C11.2586 85.4161 10.7848 84.5961 10.5437 83.6968C10.3027 82.7974 10.3021 81.8502 10.5427 80.9507L12.9724 71.8608C13.3929 70.2888 13.1523 68.627 12.4255 67.1733C9.70202 61.6977 8.16681 55.5239 8.16675 48.9907C8.16675 28.2508 23.6276 11.1232 43.6531 8.50439C45.6926 8.24263 47.7537 8.1311 49.8191 8.17139ZM61.6169 27.0845C56.342 23.9749 50.1494 22.7977 44.1013 23.7544C38.0532 24.7111 32.5261 27.7418 28.4685 32.3276C26.4105 34.6656 26.8939 38.1518 29.2039 40.2378C37.9258 48.1267 52.2894 58.2351 66.3943 61.9731C69.1803 62.7151 72.1138 61.3355 73.0798 58.6265C75.1275 52.8558 75.1038 46.5524 73.0125 40.7974C70.921 35.0422 66.8919 30.1942 61.6169 27.0845Z" fill="black"/>
</svg>
